# xmcd CD database file
#
# Track frame offsets:
#	150
#	12622
#	25865
#	37850
#	51540
#	64170
#	75637
#	88267
#	101450
#	115950
#	130400
#	141095
#	153327
#	165675
#	179025
#	190550
#	203827
#	218975
#	233730
#	246000
#
# Disc length: 3452 seconds
#
# Revision: 3
# Processed by: cddbd v1.5.2PL0 Copyright (c) Steve Scherf et al.
# Submitted via: CDex 1.51
#
DISCID=190d7a14
DTITLE=Various Artist - Living The Blues - Texas and West Coast Blues Classics
DYEAR=1998
DGENRE=Blues
TTITLE0=Clarence "Gatemouth" Brown - Midnight Hour
TTITLE1=Freddy King - Lonesome Whistle Blues
TTITLE2=Johnny "Guitar" Watson - Oh Baby
TTITLE3=Joe Liggins - Pink Champagne
TTITLE4=Charles Brown - Fool's Paradise
TTITLE5=Frankie Lee Sims - Lucy Mae Blues
TTITLE6=Lowell Fulson - Blue Shadows
TTITLE7=T-Bone Walker - High Society
TTITLE8=Jimmy Wilson - Tin Pan Alley
TTITLE9=Ivory Joe Hunter - I Almost Lost My Mind
TTITLE10=Big Walter Price - Pack Fair And Square
TTITLE11=Amos Milburn - Let's Rock A While
TTITLE12=Big Mama Thornton - Laugh, Laugh, Laugh
TTITLE13=Jimmy McCracklin - Just Got To Know
TTITLE14=Bobby Bland - Ain't That Loving You
TTITLE15=James Davis - Blue Monday
TTITLE16=Lightnin' Hopkins - Lightnin' Don't Feel Well
TTITLE17=Albert Collins - Dyin' Flu
TTITLE18=Pee Wee Crayton - Central Avenue Blues
TTITLE19=Percy Mayfield - Please Send Me Someone To Love
EXTD=YEAR: 1998
EXTT0=
EXTT1=
EXTT2=
EXTT3=
EXTT4=
EXTT5=
EXTT6=
EXTT7=
EXTT8=
EXTT9=
EXTT10=
EXTT11=
EXTT12=
EXTT13=
EXTT14=
EXTT15=
EXTT16=
EXTT17=
EXTT18=
EXTT19=
PLAYORDER=
